<?xml version="1.0" encoding="UTF-8"?>
<svg id="Layer_1" data-name="Layer 1" xmlns="http://www.w3.org/2000/svg" viewBox="0 0 423.4 422.6">
  <defs>
    <style>
      .cls-1 {
        fill: #fff;
        stroke: #fff200;
      }

      .cls-1, .cls-2, .cls-3, .cls-4 {
        stroke-miterlimit: 10;
        stroke-width: 5px;
      }

      .cls-2 {
        stroke: #231f20;
      }

      .cls-2, .cls-3, .cls-4 {
        fill: none;
      }

      .cls-3 {
        stroke: #262262;
      }

      .cls-4 {
        stroke: #2b3990;
      }

      .cls-5 {
        fill: #d1d3d4;
      }

      .cls-5, .cls-6 {
        stroke-width: 0px;
      }

      .cls-6 {
        fill: #ed1c24;
      }
    </style>
  </defs>
  <circle class="cls-2" cx="212.26" cy="211.99" r="159.59"/>
  <line class="cls-2" x1="72.9" y1="131.67" x2="351.32" y2="131.78"/>
  <line class="cls-2" x1="72.9" y1="290.81" x2="351.32" y2="290.96"/>
  <line class="cls-2" x1="92.74" y1="211.63" x2="339.27" y2="211.99"/>
  <line class="cls-2" x1="50.87" y1="211.59" x2="372.53" y2="211.81"/>
  <ellipse class="cls-2" cx="212.26" cy="211.3" rx="100" ry="159.59"/>
  <ellipse class="cls-2" cx="212.26" cy="211.3" rx="40" ry="159.59"/>
  <line class="cls-2" x1="212.26" y1="49.22" x2="212.04" y2="370.88"/>
  <circle class="cls-4" cx="211.7" cy="22.1" r="19.6"/>
  <circle class="cls-4" cx="211.7" cy="400.5" r="19.6"/>
  <circle class="cls-4" cx="401.3" cy="211.3" r="19.6"/>
  <circle class="cls-4" cx="22.1" cy="211.3" r="19.6"/>
  <circle class="cls-4" cx="116.9" cy="48.14" r="19.6"/>
  <circle class="cls-4" cx="306.1" cy="375.84" r="19.6"/>
  <circle class="cls-4" cx="375.7" cy="117.19" r="19.6"/>
  <circle class="cls-4" cx="47.3" cy="306.79" r="19.6"/>
  <circle class="cls-4" cx="47.85" cy="115.45" r="19.6"/>
  <circle class="cls-4" cx="375.55" cy="304.65" r="19.6"/>
  <circle class="cls-4" cx="306.5" cy="45.85" r="19.6"/>
  <circle class="cls-4" cx="116.9" cy="374.25" r="19.6"/>
  <circle class="cls-2" cx="211.7" cy="211.3" r="159.59"/>
  <polygon class="cls-6" points="212.26 49.22 232.42 219.4 212.26 194.48 212.26 49.22"/>
  <polygon class="cls-6" points="212.26 49.22 192.1 219.4 212.26 194.48 212.26 49.22"/>
  <polygon class="cls-5" points="326.08 325.48 191.49 219.4 223.37 222.77 326.08 325.48"/>
  <polygon class="cls-5" points="325.47 324.92 219.38 190.33 222.76 222.21 325.47 324.92"/>
  <circle class="cls-1" cx="212.26" cy="211.3" r="19.6"/>
  <line class="cls-3" x1="231.3" y1="22.1" x2="289.53" y2="36.05"/>
  <line class="cls-3" x1="323.47" y1="55.65" x2="365.9" y2="100.22"/>
  <line class="cls-3" x1="385.5" y1="134.17" x2="401.3" y2="191.7"/>
  <line class="cls-3" x1="401.3" y1="230.9" x2="385.35" y2="287.68"/>
  <line class="cls-3" x1="365.75" y1="321.63" x2="323.07" y2="366.04"/>
  <line class="cls-3" x1="289.13" y1="385.64" x2="231.3" y2="400.5"/>
  <line class="cls-3" x1="192.1" y1="400.5" x2="133.87" y2="384.05"/>
  <line class="cls-3" x1="99.93" y1="364.45" x2="57.1" y2="323.77"/>
  <line class="cls-3" x1="37.5" y1="289.82" x2="22.1" y2="230.9"/>
  <line class="cls-3" x1="22.1" y1="191.7" x2="38.05" y2="132.43"/>
  <line class="cls-3" x1="57.65" y1="98.48" x2="99.93" y2="57.94"/>
  <line class="cls-3" x1="133.87" y1="38.34" x2="192.1" y2="22.1"/>
</svg>